<?xml version="1.0"?>
<svg xmlns="http://www.w3.org/2000/svg" xmlns:xlink="http://www.w3.org/1999/xlink" xmlns:svgjs="http://svgjs.com/svgjs" version="1.1" width="512" height="512" x="0" y="0" viewBox="0 0 512 512" style="enable-background:new 0 0 512 512" xml:space="preserve"><g><path xmlns="http://www.w3.org/2000/svg" d="m75 150h-45v-135c0-8.285156-6.714844-15-15-15s-15 6.714844-15 15v149.988281.011719 60 .011719 119.988281c0 8.285156 6.714844 15 15 15s15-6.714844 15-15v-105h90v105c0 8.285156 6.714844 15 15 15s15-6.714844 15-15v-119c0-.167969-.019531-.332031-.023438-.5.003907-.167969.023438-.332031.023438-.5 0-41.355469-33.644531-75-75-75zm0 0" fill="#fffcfc" data-original="#000000" style=""/><path xmlns="http://www.w3.org/2000/svg" d="m497 0c-8.285156 0-15 6.714844-15 15v135h-45c-41.355469 0-75 33.644531-75 75 0 .167969.019531.332031.023438.5-.003907.167969-.023438.332031-.023438.5v119c0 8.285156 6.714844 15 15 15s15-6.714844 15-15v-105h90v105c0 8.285156 6.714844 15 15 15s15-6.714844 15-15v-330c0-8.285156-6.714844-15-15-15zm0 0" fill="#fffcfc" data-original="#000000" style=""/><path xmlns="http://www.w3.org/2000/svg" d="m306 330h-35v-222h115c8.285156 0 15-6.714844 15-15s-6.714844-15-15-15h-260c-8.285156 0-15 6.714844-15 15s6.714844 15 15 15h115v222h-35c-8.285156 0-15 6.714844-15 15s6.714844 15 15 15h100c8.285156 0 15-6.714844 15-15s-6.714844-15-15-15zm0 0" fill="#fffcfc" data-original="#000000" style=""/></g></svg>
